<svg xmlns="http://www.w3.org/2000/svg" xmlns:xlink="http://www.w3.org/1999/xlink" width="424" zoomAndPan="magnify" viewBox="0 0 318 389.999986" height="520" preserveAspectRatio="xMidYMid meet" version="1.0"><rect x="-31.8" width="381.6" fill="#ffffff" y="-38.999999" height="467.999983" fill-opacity="1"/><rect x="-31.8" width="381.6" fill="#000000" y="-38.999999" height="467.999983" fill-opacity="1"/><path fill="#000000" d="M 3.769531 113.714844 C 6.773438 74.058594 38.058594 42.773438 77.714844 39.769531 C 104.476562 37.746094 134.597656 36 159 36 C 183.402344 36 213.523438 37.746094 240.285156 39.769531 C 279.941406 42.773438 311.226562 74.058594 314.226562 113.714844 C 316.253906 140.476562 318 170.597656 318 195 C 318 219.402344 316.253906 249.523438 314.226562 276.285156 C 311.226562 315.941406 279.941406 347.226562 240.285156 350.226562 C 213.523438 352.253906 183.402344 354 159 354 C 134.597656 354 104.476562 352.253906 77.714844 350.226562 C 38.058594 347.226562 6.773438 315.941406 3.769531 276.285156 C 1.746094 249.523438 0 219.402344 0 195 C 0 170.597656 1.746094 140.476562 3.769531 113.714844 Z M 3.769531 113.714844 " fill-opacity="1" fill-rule="nonzero"/><path fill="#ffffff" d="M 74.199219 116.117188 C 74.199219 112.847656 76.847656 110.199219 80.117188 110.199219 L 147.167969 110.199219 C 150.433594 110.199219 153.085938 112.847656 153.085938 116.117188 L 153.085938 183.167969 C 153.085938 186.433594 150.433594 189.085938 147.167969 189.085938 L 80.117188 189.085938 C 76.847656 189.085938 74.199219 186.433594 74.199219 183.167969 L 74.199219 171.335938 C 74.199219 168.066406 76.847656 165.417969 80.117188 165.417969 C 83.382812 165.417969 86.03125 168.066406 86.03125 171.335938 L 86.03125 177.25 L 141.25 177.25 L 141.25 122.03125 L 86.03125 122.03125 L 86.03125 139.78125 C 86.03125 143.046875 83.382812 145.699219 80.117188 145.699219 C 76.847656 145.699219 74.199219 143.046875 74.199219 139.78125 Z M 74.199219 116.117188 " fill-opacity="1" fill-rule="evenodd"/><path fill="#ffffff" d="M 74.199219 206.832031 C 74.199219 203.566406 76.847656 200.914062 80.117188 200.914062 L 147.167969 200.914062 C 150.433594 200.914062 153.085938 203.566406 153.085938 206.832031 L 153.085938 273.882812 C 153.085938 277.152344 150.433594 279.800781 147.167969 279.800781 L 80.117188 279.800781 C 76.847656 279.800781 74.199219 277.152344 74.199219 273.882812 Z M 86.03125 212.75 L 86.03125 267.96875 L 141.25 267.96875 L 141.25 212.75 Z M 86.03125 212.75 " fill-opacity="1" fill-rule="evenodd"/><path fill="#ffffff" d="M 93.917969 135.835938 C 93.917969 132.570312 96.566406 129.921875 99.835938 129.921875 L 127.445312 129.921875 C 130.710938 129.921875 133.363281 132.570312 133.363281 135.835938 L 133.363281 163.445312 C 133.363281 166.714844 130.710938 169.363281 127.445312 169.363281 L 99.835938 169.363281 C 96.566406 169.363281 93.917969 166.714844 93.917969 163.445312 Z M 105.753906 141.753906 L 105.753906 157.53125 L 121.527344 157.53125 L 121.527344 141.753906 Z M 105.753906 141.753906 " fill-opacity="1" fill-rule="evenodd"/><path fill="#ffffff" d="M 93.917969 226.554688 C 93.917969 223.285156 96.566406 220.636719 99.835938 220.636719 L 127.445312 220.636719 C 130.710938 220.636719 133.363281 223.285156 133.363281 226.554688 L 133.363281 254.164062 C 133.363281 257.429688 130.710938 260.078125 127.445312 260.078125 L 99.835938 260.078125 C 96.566406 260.078125 93.917969 257.429688 93.917969 254.164062 Z M 105.753906 232.46875 L 105.753906 248.246094 L 121.527344 248.246094 L 121.527344 232.46875 Z M 105.753906 232.46875 " fill-opacity="1" fill-rule="evenodd"/><path fill="#ffffff" d="M 184.640625 135.835938 C 184.640625 132.570312 187.289062 129.921875 190.558594 129.921875 L 218.164062 129.921875 C 221.433594 129.921875 224.082031 132.570312 224.082031 135.835938 L 224.082031 163.445312 C 224.082031 166.714844 221.433594 169.363281 218.164062 169.363281 L 190.558594 169.363281 C 187.289062 169.363281 184.640625 166.714844 184.640625 163.445312 Z M 196.472656 141.753906 L 196.472656 157.53125 L 212.25 157.53125 L 212.25 141.753906 Z M 196.472656 141.753906 " fill-opacity="1" fill-rule="evenodd"/><path fill="#ffffff" d="M 164.921875 116.117188 C 164.921875 112.847656 167.570312 110.199219 170.835938 110.199219 L 237.886719 110.199219 C 241.15625 110.199219 243.804688 112.847656 243.804688 116.117188 L 243.804688 183.167969 C 243.804688 186.433594 241.15625 189.085938 237.886719 189.085938 L 170.835938 189.085938 C 167.570312 189.085938 164.921875 186.433594 164.921875 183.167969 Z M 176.753906 122.03125 L 176.753906 177.25 L 231.972656 177.25 L 231.972656 122.03125 Z M 176.753906 122.03125 " fill-opacity="1" fill-rule="evenodd"/><path fill="#ffffff" d="M 160.976562 206.832031 C 160.976562 203.566406 163.625 200.914062 166.894531 200.914062 L 237.886719 200.914062 C 241.15625 200.914062 243.804688 203.566406 243.804688 206.832031 C 243.804688 210.101562 241.15625 212.75 237.886719 212.75 L 166.894531 212.75 C 163.625 212.75 160.976562 210.101562 160.976562 206.832031 Z M 160.976562 206.832031 " fill-opacity="1" fill-rule="evenodd"/><path fill="#ffffff" d="M 184.640625 234.441406 C 184.640625 231.175781 187.289062 228.527344 190.558594 228.527344 L 214.222656 228.527344 C 217.488281 228.527344 220.136719 231.175781 220.136719 234.441406 C 220.136719 237.710938 217.488281 240.359375 214.222656 240.359375 L 190.558594 240.359375 C 187.289062 240.359375 184.640625 237.710938 184.640625 234.441406 Z M 184.640625 234.441406 " fill-opacity="1" fill-rule="evenodd"/><path fill="#ffffff" d="M 160.976562 265.996094 C 160.976562 262.726562 163.625 260.078125 166.894531 260.078125 L 190.558594 260.078125 C 193.828125 260.078125 196.476562 262.726562 196.476562 265.996094 C 196.476562 269.261719 193.828125 271.910156 190.558594 271.910156 L 166.894531 271.910156 C 163.625 271.910156 160.976562 269.261719 160.976562 265.996094 Z M 160.976562 265.996094 " fill-opacity="1" fill-rule="evenodd"/><path fill="#ffffff" d="M 208.304688 265.996094 C 208.304688 262.726562 210.953125 260.078125 214.21875 260.078125 L 237.886719 260.078125 C 241.152344 260.078125 243.800781 262.726562 243.800781 265.996094 C 243.800781 269.261719 241.152344 271.910156 237.886719 271.910156 L 214.21875 271.910156 C 210.953125 271.910156 208.304688 269.261719 208.304688 265.996094 Z M 208.304688 265.996094 " fill-opacity="1" fill-rule="evenodd"/></svg>